<svg xmlns="http://www.w3.org/2000/svg" width="222.169" height="239.943" viewBox="0 0 222.169 239.943"><g transform="translate(-4 -3)"><g transform="translate(4 3)"><path d="M117.912,171.77l-15.078.079h30.024l.177-.158h0l-.883,0,58.47-52.279V47.51a8.965,8.965,0,0,0-8.886-8.963H48.433a8.868,8.868,0,0,0-8.886,8.905v72.853l58.217,51.368,20.148.1ZM84.789,29.66,115.085,3l30.3,26.66h36.378a17.741,17.741,0,0,1,17.751,17.77V77.293l26.66,23.461V225.222a17.773,17.773,0,0,1-17.805,17.721H21.805A17.722,17.722,0,0,1,4,225.222V100.754L30.66,77.293V47.43A17.716,17.716,0,0,1,48.411,29.66Zm47.428,0L115.085,14.553,97.952,29.66ZM199.509,89l13.33,11.755L199.509,112.6V89ZM30.66,112.6,17.33,100.754,30.66,89v23.6Zm57.764,68.132L26.217,234.056H203.952l-62.207-53.321Zm126.06,50.878L146.188,172l71.094-62.359V225.169a8.87,8.87,0,0,1-2.8,6.444Zm-198.8,0L83.981,172,12.887,109.641V225.169a8.87,8.87,0,0,0,2.8,6.444Z" transform="translate(-4 -3)" fill="#2694f4" fill-rule="evenodd"/></g></g></svg>