<svg xmlns="http://www.w3.org/2000/svg" width="112" height="91.259" viewBox="0 0 112 91.259"><g transform="translate(-2 -5)"><path d="M26.889,17.444c0,19.422,16.153,21.355,21.964,20.434s21-3.331,21-3.331l25.163,22.7L46.564,94.405,8.662,54.778h-6.6L2,5H45.556S37.01,7.974,34.181,9.015,26.889,11.4,26.889,17.444Z" transform="translate(0 0)" fill="#51c4f5"/><circle cx="8.296" cy="8.296" r="8.296" transform="translate(80.815 54.778)" fill="#51c4f5"/><path d="M30.741,10.074a10.37,10.37,0,0,1-20.741,0V8H23.05Z" transform="translate(25.185 9.444)" fill="#51c4f5"/><circle cx="8.296" cy="8.296" r="8.296" transform="translate(64.222 5)" fill="#51c4f5"/><circle cx="8.296" cy="8.296" r="8.296" transform="translate(68.37 63.074)" fill="#51c4f5"/><circle cx="8.296" cy="8.296" r="8.296" transform="translate(55.926 71.37)" fill="#51c4f5"/><circle cx="8.296" cy="8.296" r="8.296" transform="translate(43.481 79.667)" fill="#51c4f5"/><path d="M88.815,62.857V13.079L72.222,17.227,50.884,5.579l-5.716-.51L10,17.227,21.42,29.618l25.913-4.111S69.111,45,72.915,48.8c3.65,3.65,7.259,6.4,7.545,14.054Z" transform="translate(25.185 0.217)" fill="#51c4f5"/></g></svg>