<svg xmlns="http://www.w3.org/2000/svg" xmlns:xlink="http://www.w3.org/1999/xlink" width="431" height="324.796" viewBox="0 0 431 324.796">
  <defs>
    <linearGradient id="linear-gradient" x1="0.74" y1="0.642" x2="-1.973" y2="1" gradientUnits="objectBoundingBox">
      <stop offset="0" stop-opacity="0"/>
      <stop offset="1" stop-color="#030303" stop-opacity="0.6"/>
    </linearGradient>
  </defs>
  <g id="Hero" transform="translate(-841 -185.206)">
    <rect id="Shadow" width="312" height="205" transform="translate(960 305)" fill="url(#linear-gradient)"/>
    <g id="Box" transform="translate(75.842 85)">
      <path id="Path_1" data-name="Path 1" d="M28.554,28.554,168,0,137.914,137.914,0,168Z" transform="translate(884 100.206) rotate(45)" fill="#51c4f5"/>
      <path id="Path_3" data-name="Path 3" d="M744.2,228.914,863.09,305.277l-.473,129.589L744.158,358.748Z" transform="translate(21 -10)" fill="#32a3d3"/>
      <path id="Path_4" data-name="Path 4" d="M863.016,229,744.022,305.209,743.544,435l119.519-76.254Z" transform="translate(140 -10)" fill="#1d97cb"/>
    </g>
    <path id="Drop" d="M877.866,182.564a107.4,107.4,0,0,1-7.732,20.069c-5.14,10.332-13.666,22.823-13.666,31.11,0,16.811,16.22,18.469,21.4,18.469a20.63,20.63,0,0,0,14.726-5.873c1.909-1.766,3.976-6.023,3.976-12.6,0-8.893-7.241-19.81-12.291-31.11A110.4,110.4,0,0,1,877.866,182.564Z" transform="translate(83.532 66)" fill="#113c70"/>
  </g>
</svg>
